<?xml version="1.0" encoding="UTF-8"?>
<svg xmlns="http://www.w3.org/2000/svg" viewBox="0 0 601.59 94.93">
  <defs>
    <style>.cls-l{fill:#F4F6FB;}</style>
  </defs>
  <g>
    <g>
      <rect class="cls-l" width="36.41" height="94.93"></rect>
      <rect class="cls-l" x="52.4" width="36.41" height="94.93"></rect>
      <rect class="cls-l" x="104.79" width="36.41" height="94.93"></rect>
    </g>
    <g>
      <path class="cls-l" d="M177.03,90.45v-5.45c8.42.95,16.71,1.66,25.6,1.66,19.67,0,25.01-4.39,25.01-15.17,0-5.22-1.66-8.18-5.21-10.55-3.56-2.49-9.13-4.03-17.54-6.4-8.53-2.49-15.41-4.98-19.91-8.77-4.62-3.91-7.11-9.13-7.11-16.95,0-19.79,16.24-24.89,35.44-24.89,6.64,0,16.24.71,24.42,2.25v5.45c-6.99-.95-14.82-1.54-21.33-1.54-17.07,0-22.28,3.44-22.28,13.87,0,4.98,1.54,7.94,4.86,10.07,3.44,2.25,9.01,4.03,16.71,6.16,9.01,2.49,15.76,4.86,20.5,8.53,5.1,4.03,7.59,9.24,7.59,17.42,0,20.15-18.73,26.67-37.93,26.67-9.13,0-19.56-.83-28.8-2.37Z"></path>
      <path class="cls-l" d="M255.97,4.64h60.8v5.93h-43.26v33.66h38.87v5.93h-38.87v36.03h43.85v5.93h-61.39V4.64Z"></path>
      <path class="cls-l" d="M336.33,22.53v69.57h-6.52V4.64h17.9l28.44,71.47,28.09-71.47h17.3v87.47h-17.3V22.06l-27.62,70.05h-12.45l-27.85-69.57Z"></path>
      <path class="cls-l" d="M434.82,48.37c0-28.33,14.58-44.8,40.89-44.8s41.01,16.47,41.01,44.8-14.58,44.8-41.01,44.8-40.89-16.47-40.89-44.8ZM498.35,48.25c0-29.16-6.4-38.76-22.64-38.76s-22.64,9.84-22.64,38.76,6.52,38.87,22.64,38.87,22.64-9.84,22.64-38.87Z"></path>
      <path class="cls-l" d="M527.04,48.37c0-31.64,17.54-44.45,46.11-44.45,8.18,0,17.54.83,25.72,2.25v5.33c-7.23-.83-14.7-1.42-21.33-1.42-25.84,0-32.24,9.01-32.24,38.16s7.23,38.28,29.87,38.28c3.2,0,6.52-.12,9.6-.36v-36.03h-17.07v-5.93h33.9v46.82c-8.77,1.42-18.73,1.9-28.33,1.9-28.8,0-46.22-11.5-46.22-44.56Z"></path>
    </g>
  </g>
</svg>
